<svg width="147" height="136" viewBox="0 0 147 136" fill="none" xmlns="http://www.w3.org/2000/svg">
<path d="M99.957 17.8705L87.8431 29.9843C87.0699 29.2111 86.2967 28.5238 85.5234 27.7506L97.7232 15.5508L99.957 17.8705Z" fill="white"/>
<path d="M108.628 29.8987L94.1089 38.3183C93.5934 37.3732 92.992 36.5141 92.3906 35.6549L106.996 27.2354L108.628 29.8987Z" fill="white"/>
<path d="M113.878 43.3869L98.0701 47.7685C97.8123 46.7375 97.4687 45.7066 97.125 44.7615L113.105 40.3799L113.878 43.3869Z" fill="white"/>
<path d="M31.5742 27.7506C30.801 28.4379 30.0277 29.2111 29.2545 29.9844L17.1406 17.8705L19.3744 15.6367L31.5742 27.7506Z" fill="white"/>
<path d="M40.2469 21.9939C39.3018 22.5094 38.3567 23.0249 37.4117 23.5404L28.7344 8.50541L31.4836 6.87305L40.2469 21.9939Z" fill="white"/>
<path d="M49.701 18.6418C48.67 18.8996 47.6391 19.1573 46.6081 19.4151L41.9688 2.49L45.0617 1.63086L49.701 18.6418Z" fill="white"/>
<path d="M60.1788 0V17.6124C59.6633 17.6124 59.1478 17.6124 58.5464 17.6124C58.0309 17.6124 57.5155 17.6124 56.9141 17.6124V0H60.1788Z" fill="white"/>
<path d="M74.8651 2.40602L70.3117 19.3311C69.2807 18.9874 68.2497 18.7297 67.2188 18.5579L71.7722 1.54688L74.8651 2.40602Z" fill="white"/>
<path d="M88.45 8.50541L79.7727 23.5404C78.8276 23.0249 77.9685 22.5094 76.9375 21.9939L85.7007 6.87305L88.45 8.50541Z" fill="white"/>
<path d="M17.7378 55.4141C17.6519 56.445 17.6519 57.5619 17.6519 58.5929H1.58594V55.4141H17.7378Z" fill="white"/>
<path d="M115.503 55.4141V58.5929H99.5234C99.5234 57.476 99.4375 56.445 99.4375 55.4141H115.503Z" fill="white"/>
<path d="M19.972 44.9325C19.6283 45.9634 19.2846 46.9944 19.0269 48.0253L3.13281 43.8156L3.99195 40.7227L19.972 44.9325Z" fill="white"/>
<path d="M24.6909 35.57C24.0895 36.4291 23.4881 37.3742 22.9726 38.3192L8.45312 29.8996L10.0855 27.1504L24.6909 35.57Z" fill="white"/>
<path d="M87.8466 29.9828L71.7807 46.0487L70.5779 44.2445C70.3201 43.9009 69.9765 43.6431 69.6328 43.5572L85.441 27.749C86.3001 28.4363 87.0734 29.2096 87.8466 29.9828Z" fill="white"/>
<path d="M94.1191 38.3157L74.1011 49.8282L72.3828 47.1648L92.4008 35.6523C93.0022 36.4256 93.6036 37.3706 94.1191 38.3157Z" fill="white"/>
<path d="M98.0718 47.7668L76.5933 53.6948L74.7891 50.8597L97.1267 44.7598C97.4704 45.7048 97.7281 46.7358 98.0718 47.7668Z" fill="white"/>
<path d="M47.4716 43.5572C47.1279 43.6431 46.7843 43.9009 46.5265 44.2445L45.4097 46.0487L29.3438 29.9828C30.117 29.2096 30.8902 28.5222 31.6634 27.749L47.4716 43.5572Z" fill="white"/>
<path d="M66.0312 47.2517L58.9004 58.5923H58.299L51.1681 47.2517L37.4219 23.5394C38.3669 23.0239 39.312 22.5085 40.257 21.993L53.7455 45.3616L46.6147 19.4155C47.6456 19.0719 48.6766 18.8141 49.7076 18.6423L57.0103 45.1897V17.6973C57.5257 17.6973 58.0412 17.6973 58.6426 17.6973C59.1581 17.6973 59.6736 17.6973 60.275 17.6973V44.8461L67.3199 18.5564C68.3509 18.8141 69.3819 19.0719 70.4129 19.3296L63.3679 45.6193L77.0282 21.907C77.9733 22.4225 78.9183 22.938 79.8634 23.4535L66.0312 47.2517Z" fill="white"/>
<path d="M39.4784 55.4141L37.4165 58.5929H17.6562C17.6562 57.476 17.7422 56.445 17.7422 55.4141H39.4784Z" fill="white"/>
<path d="M99.5331 58.5929H79.6869L77.625 55.4141H99.3612C99.4472 56.445 99.5331 57.476 99.5331 58.5929Z" fill="white"/>
<path d="M42.3139 50.9466L40.5098 53.7818L19.0312 48.0255C19.289 46.9945 19.6326 45.9636 19.9763 44.9326L42.3139 50.9466Z" fill="white"/>
<path d="M44.7206 47.0808L43.0023 49.7441L22.9844 38.2317C23.4999 37.2866 24.1013 36.4275 24.7027 35.4824L44.7206 47.0808Z" fill="white"/>
<path d="M6.48287 96.9119H0.984375V79.0418H6.13922L6.74061 82.1347L6.13922 81.4474C6.48287 80.7601 7.17018 80.0728 8.02932 79.3855C8.97438 78.7841 10.1772 78.4404 11.6377 78.4404C13.1842 78.4404 14.4729 78.87 15.4179 79.6432C16.363 80.4165 17.0503 81.4474 17.5658 82.7361H16.7066C16.9644 81.4474 17.6517 80.4165 18.7686 79.6432C19.8855 78.87 21.1742 78.4404 22.7206 78.4404C25.0403 78.4404 26.7586 79.0418 27.8755 80.2446C28.9923 81.4474 29.5937 83.0798 29.5937 85.1417V96.826H24.1812V86.6882C24.1812 85.5713 23.9234 84.7122 23.4079 84.1967C22.8924 83.6812 22.1192 83.3375 21.2601 83.3375C20.7446 83.3375 20.2291 83.4234 19.7995 83.6812C19.2841 83.9389 18.9404 84.2826 18.5967 84.884C18.2531 85.4854 18.1672 86.2586 18.1672 87.2896V96.9119H12.6687V86.7741C12.6687 85.6572 12.4109 84.7981 11.8955 84.2826C11.38 83.7671 10.6927 83.5094 9.7476 83.5094C9.23212 83.5094 8.71664 83.5953 8.20115 83.853C7.68567 84.1108 7.34201 84.4544 6.99836 85.0558C6.6547 85.6572 6.56879 86.4305 6.56879 87.3755V96.9119H6.48287Z" fill="white"/>
<path d="M41.9662 97.3415C40.162 97.3415 38.6156 96.9119 37.155 96.1387C35.7804 95.3655 34.6635 94.2486 33.8903 92.7881C33.1171 91.3275 32.6875 89.7811 32.6875 87.891C32.6875 86.0009 33.1171 84.3685 33.8903 82.9939C34.6635 81.5333 35.7804 80.4165 37.155 79.6432C38.5296 78.87 40.162 78.4404 41.8803 78.4404C43.7704 78.4404 45.4028 78.87 46.7774 79.6432C48.152 80.4165 49.183 81.5333 49.9562 82.908C50.7294 84.3685 51.0731 86.0009 51.0731 87.9769V89.3515L35.6945 89.4374L35.7804 86.0009H45.6605C45.6605 85.0558 45.3169 84.2826 44.7155 83.7671C44.1141 83.1657 43.169 82.908 42.0521 82.908C41.1071 82.908 40.3338 83.0798 39.8184 83.4235C39.217 83.7671 38.7874 84.3685 38.5297 85.0558C38.2719 85.829 38.1001 86.7741 38.1001 87.9769C38.1001 89.6093 38.4437 90.898 39.131 91.6712C39.8184 92.4444 40.8493 92.874 42.3099 92.874C43.3408 92.874 44.2 92.7022 44.8873 92.3585C45.5746 92.0149 46.0042 91.4994 46.176 90.898H51.2449C50.9013 92.874 49.9562 94.4204 48.3238 95.6232C46.4337 96.7401 44.3718 97.3415 41.9662 97.3415Z" fill="white"/>
<path d="M47.8963 70.8799L43.8583 76.8079H39.9062L42.9132 70.8799H47.8963Z" fill="white"/>
<path d="M59.7485 96.9125H54.25V69.9355H59.7485V96.9125Z" fill="white"/>
<path d="M69.2874 97.3424C67.3973 97.3424 65.9367 96.827 64.8199 95.796C63.703 94.765 63.1875 93.3904 63.1875 91.5862C63.1875 89.9539 63.7889 88.6651 64.9058 87.6342C66.0227 86.6891 67.655 86.0877 69.8029 85.9159L74.7859 85.4863V85.2286C74.7859 84.6272 74.7 84.1117 74.4422 83.768C74.1845 83.3385 73.8408 83.0807 73.4113 82.9089C72.9817 82.7371 72.3803 82.5652 71.7789 82.5652C70.5761 82.5652 69.717 82.7371 69.1156 83.1666C68.5142 83.5962 68.1705 84.1976 68.1705 85.0568H63.6171C63.6171 83.6821 63.9607 82.4793 64.648 81.5343C65.3353 80.5033 66.3663 79.7301 67.5691 79.2146C68.8578 78.6991 70.3184 78.3555 72.0366 78.3555C73.7549 78.3555 75.2155 78.6991 76.4183 79.3005C77.6211 79.9019 78.5661 80.847 79.1675 82.0498C79.7689 83.2526 80.1126 84.7131 80.1126 86.4314V96.9129H75.2155L74.8718 94.5932C74.6141 95.3664 73.9267 96.0537 72.8099 96.6551C71.7789 97.0847 70.5761 97.3424 69.2874 97.3424ZM71.1775 93.3045C72.2085 93.3045 73.0676 93.0468 73.7549 92.5313C74.4422 92.0158 74.7859 91.2426 74.7859 90.2116V89.2665L72.0366 89.5243C70.8338 89.6102 69.9747 89.782 69.5451 90.1257C69.0297 90.3834 68.7719 90.8989 68.7719 91.4144C68.7719 92.0158 68.9437 92.5313 69.3733 92.8749C69.717 93.1327 70.4043 93.3045 71.1775 93.3045Z" fill="white"/>
<path d="M89.561 96.911H84.0625V79.0409H89.2173L89.561 80.931C90.0765 80.1578 90.8497 79.5564 91.7948 79.1268C92.7398 78.6972 93.8567 78.5254 94.9736 78.5254C97.1214 78.5254 98.7538 79.2127 99.9566 80.5014C101.159 81.7901 101.761 83.5943 101.761 85.9999V97.0828H96.2623V87.3745C96.2623 86.2577 96.0045 85.3126 95.4032 84.7112C94.8018 84.1098 94.0285 83.6802 93.0835 83.6802C91.9666 83.6802 91.1074 84.0239 90.506 84.6253C89.9047 85.3126 89.561 86.1717 89.561 87.2886V96.911Z" fill="white"/>
<path d="M104.859 87.6342C104.859 85.83 105.203 84.1976 105.976 82.823C106.664 81.4484 107.694 80.3315 108.983 79.5583C110.272 78.785 111.732 78.3555 113.451 78.3555C114.825 78.3555 116.028 78.6132 117.059 79.2146C118.09 79.816 118.777 80.5033 119.121 81.4484L118.606 81.792L119.035 78.9569H124.19V95.7101C124.19 97.8579 123.76 99.6621 122.987 101.209C122.214 102.755 121.097 103.958 119.637 104.731C118.176 105.59 116.458 105.934 114.396 105.934C111.647 105.934 109.413 105.161 107.694 103.7C105.976 102.24 104.945 100.264 104.688 97.6861H110.272C110.358 98.7171 110.701 99.4903 111.389 100.006C112.076 100.607 113.107 100.865 114.31 100.865C115.684 100.865 116.715 100.521 117.489 99.7481C118.262 98.9748 118.691 98.0298 118.691 96.7411V92.9609L119.293 93.3904C118.949 94.3355 118.176 95.1087 117.059 95.6242C115.942 96.2256 114.739 96.4833 113.279 96.4833C111.647 96.4833 110.1 96.1397 108.897 95.3664C107.609 94.5932 106.664 93.5622 105.89 92.1876C105.203 90.9848 104.859 89.4384 104.859 87.6342ZM110.444 87.4623C110.444 88.3215 110.616 89.0947 110.959 89.6961C111.303 90.3834 111.818 90.8989 112.42 91.2426C113.021 91.5862 113.794 91.844 114.568 91.844C115.427 91.844 116.114 91.6721 116.801 91.3285C117.403 90.9848 117.918 90.4693 118.262 89.782C118.606 89.0947 118.777 88.3215 118.777 87.4623C118.777 86.6032 118.606 85.83 118.262 85.2286C117.918 84.6272 117.403 84.1117 116.801 83.768C116.2 83.4244 115.427 83.2526 114.568 83.2526C113.794 83.2526 113.021 83.4244 112.42 83.768C111.818 84.1117 111.303 84.6272 110.959 85.2286C110.616 85.83 110.444 86.6032 110.444 87.4623Z" fill="white"/>
<path d="M136.732 97.3415C134.928 97.3415 133.381 96.9119 131.921 96.1387C130.546 95.3655 129.429 94.2486 128.656 92.7881C127.883 91.3275 127.453 89.7811 127.453 87.891C127.453 86.0009 127.883 84.3685 128.656 82.9939C129.429 81.5333 130.546 80.4165 131.921 79.6432C133.295 78.87 134.928 78.4404 136.646 78.4404C138.536 78.4404 140.168 78.87 141.543 79.6432C142.918 80.4165 143.949 81.5333 144.722 82.908C145.495 84.3685 145.839 86.0009 145.839 87.9769V89.3515L130.46 89.4374L130.546 86.0009H140.426C140.426 85.0558 140.082 84.2826 139.481 83.7671C138.88 83.1657 137.935 82.908 136.818 82.908C135.873 82.908 135.099 83.0798 134.584 83.4235C133.983 83.7671 133.553 84.3685 133.295 85.0558C133.038 85.829 132.866 86.7741 132.866 87.9769C132.866 89.6093 133.209 90.898 133.897 91.6712C134.584 92.4444 135.615 92.874 137.075 92.874C138.106 92.874 138.966 92.7022 139.653 92.3585C140.34 92.0149 140.77 91.4994 140.942 90.898H146.011C145.667 92.874 144.722 94.4204 143.089 95.6232C141.199 96.7401 139.137 97.3415 136.732 97.3415Z" fill="white"/>
<path d="M7.94341 129.299C6.48287 129.299 5.28008 128.956 4.16319 128.268C3.21814 127.581 2.359 126.722 1.84352 125.519C1.24212 124.316 0.984375 123.028 0.984375 121.481C0.984375 119.935 1.24212 118.56 1.84352 117.357C2.44491 116.155 3.21814 115.209 4.33502 114.522C5.36599 113.835 6.6547 113.491 8.11524 113.491C9.31803 113.491 10.349 113.749 11.2081 114.179C12.1532 114.694 12.8405 115.381 13.356 116.326V106.36H16.1912V128.956H13.6137L13.356 126.206C12.8405 127.237 12.1532 128.011 11.2081 128.526C10.2631 129.042 9.14621 129.299 7.94341 129.299ZM8.54481 126.636C9.48986 126.636 10.349 126.378 11.0363 125.949C11.7236 125.519 12.325 124.918 12.6687 124.059C13.0982 123.285 13.2701 122.34 13.2701 121.309C13.2701 120.278 13.0982 119.333 12.6687 118.56C12.2391 117.787 11.7236 117.186 11.0363 116.67C10.349 116.24 9.48986 115.983 8.54481 115.983C7.59975 115.983 6.74061 116.24 6.0533 116.67C5.36599 117.1 4.85051 117.787 4.42094 118.56C4.07728 119.333 3.90545 120.278 3.90545 121.309C3.90545 122.34 4.07728 123.285 4.42094 124.059C4.76459 124.832 5.28008 125.519 6.0533 125.949C6.74061 126.464 7.59975 126.636 8.54481 126.636Z" fill="white"/>
<path d="M21.7729 110.398C21.2574 110.398 20.8278 110.227 20.3983 109.797C20.0546 109.453 19.7969 108.938 19.7969 108.422C19.7969 107.907 19.9687 107.477 20.3983 107.048C20.7419 106.704 21.2574 106.532 21.7729 106.532C22.2884 106.532 22.718 106.704 23.1475 107.048C23.4912 107.391 23.663 107.907 23.663 108.422C23.663 108.938 23.4912 109.367 23.1475 109.797C22.718 110.141 22.2884 110.398 21.7729 110.398ZM20.3124 128.87V113.921H23.2334V128.87H20.3124Z" fill="white"/>
<path d="M26.4141 121.051C26.4141 119.676 26.6718 118.387 27.2732 117.27C27.8746 116.154 28.6478 115.208 29.7647 114.521C30.7957 113.834 32.0844 113.49 33.5449 113.49C34.9195 113.49 36.0364 113.834 36.9815 114.435C37.9265 115.037 38.6138 115.982 39.0434 117.099L38.6998 117.528L39.0434 113.92H41.6208V128.267C41.6208 129.814 41.2772 131.189 40.6758 132.391C40.0744 133.508 39.2152 134.453 38.0984 135.055C36.9815 135.656 35.6069 136 34.1463 136C32.0844 136 30.452 135.484 29.0774 134.367C27.7887 133.25 26.9295 131.79 26.6718 129.9H29.5929C29.7647 131.017 30.2802 131.876 31.0534 132.477C31.8266 133.079 32.8576 133.422 34.1463 133.422C35.5209 133.422 36.7237 132.993 37.497 132.134C38.3561 131.274 38.7857 130.158 38.7857 128.697V124.487L39.1293 124.917C38.6998 126.034 38.0125 126.893 36.9815 127.58C35.9505 128.182 34.7477 128.525 33.459 128.525C31.9985 128.525 30.7957 128.182 29.7647 127.494C28.7337 126.807 27.9605 125.948 27.3591 124.831C26.7577 123.714 26.4141 122.425 26.4141 121.051ZM29.3351 120.965C29.3351 121.91 29.507 122.769 29.9365 123.542C30.2802 124.315 30.8816 124.917 31.5689 125.346C32.2562 125.776 33.0294 126.034 33.9745 126.034C34.9195 126.034 35.7787 125.862 36.466 125.432C37.1533 125.003 37.6688 124.401 38.0984 123.628C38.442 122.855 38.6998 121.996 38.6998 121.051C38.6998 120.106 38.5279 119.246 38.1843 118.473C37.8406 117.7 37.3251 117.185 36.5519 116.755C35.8646 116.325 35.0055 116.154 34.0604 116.154C33.1154 116.154 32.2562 116.411 31.5689 116.841C30.8816 117.27 30.3661 117.872 30.0224 118.645C29.507 119.246 29.3351 120.02 29.3351 120.965Z" fill="white"/>
<path d="M47.1166 110.398C46.6012 110.398 46.1716 110.227 45.742 109.797C45.3984 109.453 45.1406 108.938 45.1406 108.422C45.1406 107.907 45.3125 107.477 45.742 107.048C46.0857 106.704 46.6012 106.532 47.1166 106.532C47.6321 106.532 48.0617 106.704 48.4913 107.048C48.8349 107.391 49.0068 107.907 49.0068 108.422C49.0068 108.938 48.8349 109.367 48.4913 109.797C48.1476 110.141 47.6321 110.398 47.1166 110.398ZM45.742 128.87V113.921H48.6631V128.87H45.742Z" fill="white"/>
<path d="M51.1562 113.922H59.9195V116.327H51.1562V113.922ZM56.9984 128.871H54.0773V109.196H56.9984V128.871Z" fill="white"/>
<path d="M66.7095 129.299C65.0772 129.299 63.8744 128.87 62.9293 128.011C61.9843 127.152 61.5547 126.121 61.5547 124.746C61.5547 123.371 62.0702 122.254 63.0152 121.481C63.9603 120.622 65.3349 120.193 67.1391 120.021L71.8644 119.677V119.247C71.8644 118.388 71.6925 117.701 71.4348 117.271C71.0911 116.756 70.7475 116.412 70.1461 116.241C69.6306 116.069 69.0292 115.897 68.3419 115.897C67.1391 115.897 66.194 116.155 65.5067 116.67C64.8194 117.186 64.4758 117.873 64.4758 118.818H61.9843C61.9843 117.787 62.242 116.842 62.7575 116.069C63.273 115.295 64.0462 114.694 64.9912 114.264C65.9363 113.835 67.0532 113.663 68.3419 113.663C69.6306 113.663 70.6616 113.921 71.6066 114.35C72.5517 114.78 73.239 115.467 73.7545 116.326C74.27 117.186 74.5277 118.302 74.5277 119.677V129.128H72.2939L71.9503 126.722C71.5207 127.581 70.9193 128.268 69.9743 128.784C69.0292 129.042 67.9123 129.299 66.7095 129.299ZM67.5687 127.066C68.9433 127.066 69.9743 126.636 70.7475 125.863C71.5207 125.004 71.9503 123.887 71.9503 122.512V121.739L68.0842 122.083C66.7954 122.169 65.9363 122.512 65.3349 122.942C64.7335 123.371 64.4758 123.973 64.4758 124.746C64.4758 125.519 64.7335 126.121 65.249 126.55C65.8504 126.808 66.6236 127.066 67.5687 127.066Z" fill="white"/>
<path d="M81.6555 128.871H78.7344V106.275H81.6555V128.871Z" fill="white"/>
</svg>
